<?xml version="1.0" encoding="UTF-8"?>
<svg width="25px" height="26px" viewBox="0 0 25 26" version="1.1" xmlns="http://www.w3.org/2000/svg" xmlns:xlink="http://www.w3.org/1999/xlink">
    <!-- Generator: Sketch 64 (93537) - https://sketch.com -->
    <title>Add Image Button</title>
    <desc>Created with Sketch.</desc>
    <defs>
        <polygon id="path-1" points="0 0.0502136054 16.5343182 0.0502136054 16.5343182 14.6331467 0 14.6331467"></polygon>
    </defs>
    <g id="Dashboard" stroke="none" stroke-width="1" fill="none" fill-rule="evenodd">
        <g id="10.-Dashboard---My-Info" transform="translate(-207.000000, -282.000000)">
            <g id="Group" transform="translate(124.000000, 129.000000)">
                <g id="Add-Image-Button" transform="translate(83.000000, 153.000000)">
                    <g id="Add-Image">
                        <rect id="Rectangle" stroke="#FFFFFF" fill="#1F2741" opacity="0.617931548" x="0.5" y="0.5" width="24" height="25" rx="2"></rect>
                        <g id="Group-8" transform="translate(3.333333, 5.200000)">
                            <polygon id="Fill-1" fill="#FFFFFF" points="16.9396717 8.66666667 15.8022341 8.66666667 15.8022341 11.2339311 13.3333333 11.2339311 13.3333333 13.0327355 15.8022341 13.0327355 15.8022341 15.1370137 15.8022341 15.6 17.5310992 15.6 17.5310992 13.0327355 20 13.0327355 20 11.2339311 17.5312662 11.2339311 17.5312662 8.66666667"></polygon>
                            <g id="Group-7">
                                <path d="M11.3235303,4.77424646 C11.3235303,5.58623354 11.9871667,6.24487367 12.8055,6.24487367 C13.6239848,6.24487367 14.2876212,5.58623354 14.2876212,4.77424646 C14.2876212,3.96256007 13.6239848,3.30361925 12.8055,3.30361925 C11.9871667,3.30361925 11.3235303,3.96225939 11.3235303,4.77424646" id="Fill-2" fill="#FFFFFF"></path>
                                <g id="Group-6">
                                    <mask id="mask-2" fill="white">
                                        <use xlink:href="#path-1"></use>
                                    </mask>
                                    <g id="Clip-5"></g>
                                    <path d="M12.2694697,13.7959024 L12.2694697,12.8116256 L12.2694697,11.2544024 L12.2694697,10.4598548 L11.2962879,10.4598548 L8.88265152,6.72555619 L7.93022727,8.1991902 L9.39159091,10.4600052 L8.50795455,10.4600052 L7.48856061,8.88293714 L5.43583333,5.70745279 L2.3644697,10.4598548 L1.60431818,10.4598548 L1.60431818,1.63308476 L14.9141667,1.63308476 L14.9141667,8.04719633 L15.5020455,8.04719633 L16.5343182,8.04719633 L16.5343182,0.733449388 C16.5343182,0.356095646 16.2259848,0.0501534694 15.8453788,0.0501534694 L0.688863636,0.0501534694 C0.308409091,0.0501534694 -7.57575758e-05,0.355945306 -7.57575758e-05,0.733449388 L-7.57575758e-05,13.9497004 C-7.57575758e-05,14.3275052 0.308409091,14.6331467 0.688863636,14.6331467 L14.5097727,14.6331467 L14.5097727,13.7959024 L13.2615909,13.7959024 L12.2694697,13.7959024 Z" id="Fill-4" fill="#FFFFFF" mask="url(#mask-2)"></path>
                                </g>
                            </g>
                        </g>
                    </g>
                </g>
            </g>
        </g>
    </g>
</svg>