<?xml version="1.0" encoding="UTF-8"?>
<svg width="15px" height="15px" viewBox="0 0 15 15" version="1.1" xmlns="http://www.w3.org/2000/svg" xmlns:xlink="http://www.w3.org/1999/xlink">
    <!-- Generator: Sketch 64 (93537) - https://sketch.com -->
    <title>Help Icon</title>
    <desc>Created with Sketch.</desc>
    <g id="Dashboard" stroke="none" stroke-width="1" fill="none" fill-rule="evenodd">
        <g id="10.-Dashboard---My-Info" transform="translate(-979.000000, -10.000000)" fill="#FFFFFF">
            <g id="Nav-Bar">
                <g id="Help" transform="translate(941.000000, 10.000000)">
                    <g id="Help-Icon" transform="translate(38.000000, 0.000000)">
                        <g id="noun_Email_2410148_000000">
                            <path d="M14.9966667,5.47949848 C14.9966667,5.47102677 14.995,5.46255507 14.995,5.45238902 C14.9933333,5.447306 14.9933333,5.44222298 14.9916667,5.43713995 C14.99,5.43036259 14.9866667,5.42189088 14.985,5.41511352 C14.9833333,5.40664182 14.98,5.39817011 14.9766667,5.38969841 C14.975,5.38461538 14.9733333,5.37953236 14.97,5.37444934 C14.9683333,5.36767198 14.965,5.36089461 14.9616667,5.35581159 C14.9566667,5.34733988 14.9533333,5.33886818 14.9483333,5.33039648 C14.945,5.32531345 14.9416667,5.32023043 14.9383333,5.31514741 C14.9366667,5.31345307 14.935,5.31175873 14.9333333,5.31006438 C14.9316667,5.30498136 14.9283333,5.30328702 14.925,5.29989834 C14.92,5.29312098 14.915,5.28634361 14.9083333,5.27956625 C14.9033333,5.27448323 14.9,5.27109454 14.895,5.26601152 C14.8883333,5.2609285 14.8816667,5.25415114 14.8766667,5.24906811 C14.8716667,5.24567943 14.87,5.24229075 14.865,5.24059641 L12.5,3.44967808 L12.5,2.80074551 C12.5,2.23991867 12.0516667,1.78414097 11.5,1.78414097 L10.2983333,1.78414097 L8.29666667,0.269400203 C7.82,-0.0898000678 7.18,-0.0898000678 6.70333333,0.269400203 L4.70166667,1.78414097 L3.5,1.78414097 C2.94833333,1.78414097 2.5,2.23991867 2.5,2.80074551 L2.5,3.44967808 L0.135,5.24059641 C0.13,5.24229075 0.128333333,5.24567943 0.125,5.24906811 C0.118333333,5.25415114 0.111666667,5.25923416 0.105,5.26601152 C0.1,5.27109454 0.0966666667,5.27448323 0.0916666667,5.27956625 C0.085,5.28634361 0.08,5.29312098 0.075,5.298204 C0.0716666667,5.30328702 0.0683333333,5.30498136 0.0666666667,5.31006438 C0.065,5.31175873 0.0633333333,5.31345307 0.0616666667,5.31514741 C0.0583333333,5.32023043 0.055,5.32531345 0.0516666667,5.33209082 C0.0466666667,5.33886818 0.0433333333,5.34733988 0.0383333333,5.35581159 C0.035,5.36089461 0.0316666667,5.36767198 0.03,5.37444934 C0.0266666667,5.37953236 0.025,5.38461538 0.0233333333,5.38969841 C0.02,5.39817011 0.0166666667,5.40664182 0.015,5.41511352 C0.0133333333,5.42189088 0.01,5.43036259 0.00833333333,5.43713995 C0.00666666667,5.44222298 0.00666666667,5.447306 0.005,5.45408336 C0.005,5.46255507 0.00333333333,5.47102677 0.00333333333,5.47949848 C0.00166666667,5.48797018 0.00166666667,5.49644188 0,5.50491359 L0,13.6445273 C0,14.3917316 0.598333333,15 1.33333333,15 L13.6666667,15 C14.4016667,15 15,14.3917316 15,13.6445273 L15,5.50491359 C14.9983333,5.49644188 14.9983333,5.48797018 14.9966667,5.47949848 Z M12.5,4.29684853 L14.1083333,5.51338529 L12.5,6.72822772 L12.5,4.29684853 Z M7.10166667,0.813283633 C7.34,0.633683497 7.66,0.633683497 7.89833333,0.813283633 L9.18166667,1.78414097 L5.81833333,1.78414097 L7.10166667,0.813283633 Z M3.16666667,2.80074551 C3.16666667,2.61436801 3.31666667,2.46187733 3.5,2.46187733 L11.5,2.46187733 C11.6833333,2.46187733 11.8333333,2.61436801 11.8333333,2.80074551 L11.8333333,7.23314131 L11.6083333,7.4025754 L7.5,10.5133853 L3.39166667,7.4025754 L3.16666667,7.23314131 L3.16666667,2.80074551 Z M2.5,4.29684853 L2.5,6.72992206 L0.891666667,5.51338529 L2.5,4.29684853 Z M14.3333333,13.6445273 C14.3333333,14.0189766 14.035,14.3222636 13.6666667,14.3222636 L1.33333333,14.3222636 C0.965,14.3222636 0.666666667,14.0189766 0.666666667,13.6445273 L0.666666667,6.18603863 L5.165,9.5899695 L2.94,11.7028126 C2.805,11.8298882 2.79666667,12.0450695 2.92333333,12.1806167 C2.98833333,12.2534734 3.07833333,12.2890546 3.16666667,12.2890546 C3.24833333,12.2890546 3.33,12.2585564 3.39333333,12.1975601 L5.71,10.0016943 L7.30166667,11.2046764 C7.36,11.2504236 7.43,11.27245 7.5,11.27245 C7.57,11.27245 7.64,11.2504236 7.69833333,11.2046764 L9.29,10.0016943 L11.6066667,12.1975601 C11.67,12.2585564 11.7516667,12.2890546 11.8333333,12.2890546 C11.9216667,12.2890546 12.0116667,12.2534734 12.0766667,12.1806167 C12.2033333,12.0450695 12.195,11.8298882 12.06,11.7028126 L9.835,9.59166384 L14.3333333,6.18603863 L14.3333333,13.6445273 Z" id="Shape" fill-rule="nonzero"></path>
                            <path d="M11.25,4.125 C11.25,4.33125 11.098125,4.5 10.9125,4.5 L4.8375,4.5 C4.651875,4.5 4.5,4.33125 4.5,4.125 C4.5,3.91875 4.651875,3.75 4.8375,3.75 L10.9125,3.75 C11.098125,3.75 11.25,3.91875 11.25,4.125 Z" id="Path" fill-rule="nonzero"></path>
                            <path d="M10.5,5.625 C10.5,5.83125 10.3425,6 10.15,6 L5.6,6 C5.4075,6 5.25,5.83125 5.25,5.625 C5.25,5.41875 5.4075,5.25 5.6,5.25 L10.15,5.25 C10.3425,5.25 10.5,5.41875 10.5,5.625 Z" id="Path" fill-rule="nonzero"></path>
                        </g>
                    </g>
                </g>
            </g>
        </g>
    </g>
</svg>